<?xml version="1.0" standalone="no"?>
<!DOCTYPE svg PUBLIC "-//W3C//DTD SVG 20010904//EN"
 "http://www.w3.org/TR/2001/REC-SVG-20010904/DTD/svg10.dtd">
<svg version="1.0" xmlns="http://www.w3.org/2000/svg"
 width="1080.000000pt" height="1080.000000pt" viewBox="0 0 1080.000000 1080.000000"
 preserveAspectRatio="xMidYMid meet">

<g transform="translate(0.000000,1080.000000) scale(0.100000,-0.100000)"
fill="#000000" stroke="none">
<path d="M2062 7003 c3 -41 7 -50 37 -70 29 -19 47 -23 119 -23 l85 0 -7 -31
c-3 -17 -6 -38 -6 -45 0 -11 -17 -14 -69 -14 -64 0 -69 -2 -75 -24 -3 -14 0
-42 7 -63 10 -32 19 -40 57 -53 25 -8 46 -15 48 -16 2 -1 -6 -57 -18 -124 -11
-68 -19 -124 -18 -125 2 -1 32 -18 68 -38 l65 -36 22 127 c12 70 29 174 38
232 9 58 23 137 30 175 8 39 17 94 21 123 l7 52 -207 0 -207 0 3 -47z"/>
<path d="M2526 7029 c-2 -13 -9 -49 -15 -79 -7 -30 -23 -125 -36 -210 -13 -85
-34 -212 -45 -283 -23 -135 -22 -157 8 -157 13 0 233 110 269 135 1 0 -9 77
-22 169 -36 240 -43 216 71 216 l97 0 -7 32 c-3 18 -21 57 -39 88 -44 74 -92
100 -197 107 -77 6 -79 5 -84 -18z"/>
<path d="M1386 6549 c-69 -24 -124 -60 -183 -120 -50 -50 -57 -73 -12 -35 41
35 126 58 212 58 153 -1 212 -25 660 -269 l380 -207 63 33 c35 18 199 107 366
198 167 91 329 177 361 190 187 76 380 73 474 -10 50 -44 29 -5 -29 53 -90 90
-189 130 -320 130 -143 0 -239 -34 -493 -172 -96 -53 -198 -108 -325 -176
l-96 -51 -124 67 c-135 73 -248 134 -431 231 -68 36 -147 69 -194 81 -105 27
-230 26 -309 -1z"/>
<path d="M1253 6316 c-96 -31 -182 -112 -207 -197 -25 -82 -19 -99 12 -38 20
40 39 61 76 84 44 27 58 30 130 30 53 0 101 -7 140 -19 68 -23 296 -133 471
-228 66 -36 161 -87 210 -113 50 -26 95 -51 100 -55 6 -4 60 -33 120 -65 61
-32 117 -62 125 -67 11 -7 76 24 235 110 432 233 723 382 796 409 58 21 92 27
160 28 78 0 90 -3 135 -30 37 -23 56 -44 77 -84 22 -45 27 -50 27 -28 0 55
-39 134 -91 182 -71 66 -125 88 -234 93 -77 4 -101 1 -165 -21 -41 -14 -264
-126 -495 -248 -231 -122 -424 -222 -430 -222 -5 0 -199 100 -430 222 -231
122 -452 233 -492 247 -82 27 -199 32 -270 10z"/>
<path d="M4594 6159 c-287 -37 -429 -211 -410 -504 15 -236 114 -364 329 -423
88 -24 444 -24 534 1 181 49 271 139 289 291 l7 56 -117 0 c-115 0 -116 0
-116 -23 0 -41 -53 -101 -111 -128 -49 -21 -67 -24 -209 -24 -185 0 -236 13
-302 78 -75 73 -99 209 -58 321 29 76 51 100 126 137 60 30 77 33 179 37 126
5 228 -9 286 -39 42 -21 89 -82 89 -115 0 -29 9 -31 128 -26 l102 4 0 27 c0
47 -28 132 -57 174 -60 87 -168 138 -330 157 -101 11 -270 11 -359 -1z"/>
<path d="M9034 6160 c-281 -40 -414 -190 -414 -470 0 -248 107 -397 327 -455
78 -21 325 -30 439 -16 252 31 357 117 389 318 l7 42 -116 3 -115 3 -6 -34
c-20 -105 -122 -151 -333 -151 -150 0 -225 22 -290 83 -101 96 -96 331 10 421
59 51 116 68 251 73 199 9 305 -25 346 -110 12 -24 21 -50 21 -58 0 -11 20
-13 115 -11 63 2 115 7 115 11 0 31 -25 132 -40 161 -43 82 -125 140 -243 172
-83 22 -361 33 -463 18z"/>
<path d="M5470 5690 l0 -450 420 0 420 0 0 90 0 90 -310 0 -310 0 0 55 0 55
250 0 250 0 0 90 0 90 -250 0 -250 0 0 125 0 125 310 0 310 0 0 90 0 90 -420
0 -420 0 0 -450z"/>
<path d="M6440 5690 l0 -450 313 0 c337 0 385 6 490 55 84 40 132 87 172 168
44 91 59 191 44 308 -19 150 -93 260 -214 315 -101 47 -166 54 -497 54 l-308
0 0 -450z m648 245 c79 -27 126 -83 142 -168 12 -68 8 -155 -12 -206 -5 -14
-26 -43 -46 -64 -56 -58 -106 -69 -324 -74 l-188 -5 0 272 0 272 188 -4 c145
-4 199 -9 240 -23z"/>
<path d="M7841 5978 c-86 -168 -158 -306 -300 -580 l-81 -158 119 0 c96 0 120
3 123 14 4 21 342 666 348 666 3 0 34 -55 70 -122 122 -229 241 -453 267 -505
l27 -53 118 0 119 0 -17 33 c-9 17 -38 70 -64 117 -26 47 -64 119 -85 160 -21
41 -80 152 -130 245 -50 94 -109 204 -130 245 -21 41 -42 81 -48 88 -7 8 -46
12 -131 12 l-121 0 -84 -162z"/>
<path d="M1165 6052 c-94 -45 -134 -139 -104 -247 6 -22 17 -48 24 -59 12 -16
13 -13 8 21 -10 79 36 139 116 150 86 12 99 6 671 -310 276 -153 318 -184 398
-300 48 -69 142 -246 157 -296 6 -21 15 -7 65 96 93 195 187 317 289 376 177
104 733 404 776 419 137 47 244 -13 232 -130 -6 -53 5 -44 27 21 21 62 20 112
-3 162 -37 82 -113 122 -215 112 -115 -11 -195 -47 -596 -268 -146 -81 -301
-166 -345 -189 -44 -24 -111 -61 -148 -82 -38 -21 -70 -38 -71 -38 -2 0 -54
29 -117 63 -129 72 -164 91 -414 227 -99 54 -209 114 -245 134 -249 140 -410
183 -505 138z"/>
<path d="M1175 5820 c-24 -26 -23 -95 3 -151 10 -24 59 -101 108 -171 97 -137
390 -562 463 -670 26 -37 50 -66 56 -65 5 2 20 23 33 48 19 35 23 55 20 101
-5 62 -7 66 -306 499 -48 69 -134 193 -192 277 -97 141 -107 152 -136 152 -18
0 -38 -8 -49 -20z"/>
<path d="M3545 5724 c-44 -64 -109 -158 -145 -210 -36 -51 -94 -136 -130 -189
-36 -52 -101 -146 -144 -208 -91 -129 -106 -160 -106 -220 0 -43 35 -128 55
-134 6 -1 66 79 135 180 69 100 172 249 229 332 233 335 269 391 280 443 16
76 -8 122 -63 122 -28 0 -38 -10 -111 -116z"/>
<path d="M1592 5588 c55 -84 161 -244 235 -355 74 -112 136 -203 139 -203 16
0 37 85 38 150 0 84 -4 94 -122 279 l-63 99 -159 91 c-88 50 -162 91 -165 91
-3 0 41 -69 97 -152z"/>
<path d="M3340 5716 c-25 -13 -97 -54 -160 -90 l-115 -66 -68 -102 c-96 -146
-127 -212 -127 -273 0 -44 25 -133 42 -150 4 -4 371 536 471 692 11 17 9 17
-43 -11z"/>
<path d="M2110 5322 c0 -116 -21 -207 -70 -308 -32 -67 -122 -200 -150 -224
-18 -16 -172 -194 -207 -240 -91 -121 -143 -257 -143 -371 1 -57 37 -180 56
-186 7 -2 13 16 17 45 8 71 51 169 101 233 23 30 97 102 162 160 137 121 205
200 229 267 33 93 31 91 45 57 19 -46 24 -131 11 -191 -24 -104 -96 -225 -253
-424 -46 -58 -101 -129 -122 -159 l-38 -54 38 24 c22 13 109 67 194 120 85 54
156 96 158 94 8 -8 -40 -160 -68 -216 -39 -75 -88 -130 -153 -169 -50 -30 -51
-31 -18 -26 137 24 306 170 386 334 70 144 114 394 101 574 -21 308 -96 549
-213 695 -56 69 -63 65 -63 -35z"/>
<path d="M2729 5367 c-73 -77 -158 -269 -188 -427 -20 -100 -41 -284 -41 -351
0 -90 35 -314 61 -391 68 -205 199 -355 369 -425 81 -33 106 -29 43 8 -65 38
-114 92 -153 168 -28 56 -76 208 -68 216 2 2 84 -47 183 -109 99 -61 187 -116
194 -121 20 -12 -12 33 -149 210 -151 195 -175 231 -218 329 -44 102 -54 207
-24 271 l18 40 21 -62 c27 -80 83 -154 180 -239 219 -193 290 -286 314 -419
18 -93 19 -94 38 -55 30 58 44 137 38 210 -12 144 -80 270 -254 465 -239 270
-299 388 -312 610 l-7 120 -45 -48z"/>
<path d="M4662 5060 c-98 -61 -65 -214 49 -227 45 -5 109 16 109 36 0 23 -28
31 -57 16 -41 -21 -78 -6 -99 39 -16 32 -16 36 3 68 15 27 26 34 57 36 20 2
44 -2 52 -9 12 -10 18 -9 32 4 15 16 15 18 0 33 -27 27 -107 29 -146 4z"/>
<path d="M4877 5073 c-4 -3 -7 -60 -7 -125 l0 -118 95 0 c95 0 95 0 95 25 0
24 -2 25 -70 25 -68 0 -70 1 -70 25 0 24 3 25 60 25 57 0 60 1 60 25 0 24 -3
25 -60 25 -57 0 -60 1 -60 25 0 24 2 25 70 25 68 0 70 1 70 25 0 25 -1 25 -88
25 -49 0 -92 -3 -95 -7z"/>
<path d="M5110 4955 l0 -125 25 0 c24 0 25 2 25 76 0 45 4 73 10 69 5 -3 32
-37 61 -75 32 -43 59 -70 70 -70 17 0 19 9 20 68 1 65 1 144 0 170 -1 6 -10
12 -21 12 -17 0 -19 -8 -22 -77 l-3 -78 -60 77 c-43 56 -66 78 -82 78 -23 0
-23 -2 -23 -125z"/>
<path d="M5377 5073 c-4 -3 -7 -15 -7 -25 0 -14 8 -18 40 -18 l40 0 0 -100 0
-100 25 0 25 0 0 100 0 100 35 0 c31 0 35 3 35 25 0 25 0 25 -93 25 -52 0 -97
-3 -100 -7z"/>
<path d="M5620 4955 l0 -125 25 0 c23 0 25 4 25 40 0 35 3 40 24 40 16 0 31
-12 50 -40 19 -29 33 -40 51 -40 31 0 31 6 1 51 -24 35 -24 36 -6 52 25 21 35
63 24 96 -12 32 -58 50 -136 50 l-58 1 0 -125z m140 60 c6 -8 9 -23 5 -35 -5
-16 -15 -20 -51 -20 -44 0 -44 0 -44 35 0 34 1 35 39 35 21 0 44 -6 51 -15z"/>
<path d="M5919 5057 c-46 -31 -65 -88 -47 -142 44 -133 248 -100 248 40 0 101
-115 160 -201 102z m130 -53 c35 -45 20 -105 -31 -123 -73 -26 -129 60 -82
127 23 33 86 31 113 -4z"/>
<path d="M6288 5074 c-5 -4 -8 -61 -8 -126 l0 -118 55 0 c107 0 165 44 165
124 0 49 -19 85 -54 103 -33 17 -147 30 -158 17z m139 -66 c51 -48 16 -128
-57 -128 l-40 0 0 75 0 75 37 0 c24 0 45 -8 60 -22z"/>
<path d="M6560 4955 l0 -125 90 0 c89 0 90 0 90 25 0 24 -2 25 -65 25 -63 0
-65 1 -65 25 0 24 3 25 55 25 52 0 55 1 55 25 0 24 -3 25 -55 25 -52 0 -55 1
-55 25 0 24 2 25 65 25 63 0 65 1 65 25 0 25 -1 25 -90 25 l-90 0 0 -125z"/>
<path d="M6900 4956 l0 -126 55 0 c70 0 126 23 148 59 34 59 13 146 -42 171
-14 7 -56 15 -93 18 l-68 5 0 -127z m149 48 c45 -57 12 -124 -59 -124 l-40 0
0 75 0 75 39 0 c31 0 44 -6 60 -26z"/>
<path d="M7180 4955 l0 -125 90 0 c89 0 90 0 90 25 0 24 -2 25 -65 25 -63 0
-65 1 -65 25 0 24 3 25 55 25 52 0 55 1 55 25 0 24 -3 25 -55 25 -52 0 -55 1
-55 25 0 24 2 25 66 25 62 0 65 1 62 23 -3 21 -8 22 -90 25 l-88 3 0 -126z"/>
<path d="M7445 5068 c-28 -16 -35 -28 -35 -65 0 -36 19 -52 82 -73 44 -14 54
-26 38 -45 -16 -19 -37 -19 -74 0 -22 12 -32 12 -42 4 -22 -18 -17 -29 21 -45
53 -22 102 -18 130 11 49 48 28 98 -50 120 -41 12 -55 21 -55 35 0 24 31 34
64 19 20 -9 29 -9 41 1 22 18 19 25 -18 38 -41 15 -76 15 -102 0z"/>
<path d="M7706 5048 c-7 -18 -30 -71 -50 -116 -42 -97 -43 -102 -16 -102 12 0
26 12 35 30 14 28 20 30 68 30 49 0 53 -2 64 -30 8 -23 18 -30 37 -30 l26 0
-20 50 c-65 164 -84 200 -107 200 -16 0 -27 -9 -37 -32z m53 -69 c16 -46 14
-49 -20 -49 -24 0 -30 3 -25 16 3 9 9 27 12 40 8 33 20 30 33 -7z"/>
<path d="M7915 5068 c-3 -8 -4 -63 -3 -124 3 -104 4 -109 26 -112 20 -3 22 1
22 37 0 38 2 41 28 41 21 0 33 -10 52 -40 19 -31 30 -40 52 -40 34 0 34 3 3
44 -14 18 -25 36 -25 39 0 3 11 18 25 33 31 34 32 65 2 100 -21 24 -32 27
-100 32 -61 4 -78 2 -82 -10z m144 -56 c17 -31 -5 -52 -54 -52 -45 0 -45 0
-45 35 0 35 0 35 45 35 32 0 47 -5 54 -18z"/>
<path d="M8170 4955 l0 -125 25 0 c23 0 25 4 25 40 0 35 3 40 24 40 16 0 32
-12 51 -40 21 -31 34 -40 56 -40 l29 0 -30 42 -30 42 25 26 c26 27 32 68 15
100 -13 25 -62 40 -131 40 l-59 0 0 -125z m145 40 c0 -29 -2 -30 -47 -33 l-48
-3 0 36 0 36 48 -3 c45 -3 47 -4 47 -33z"/>
<path d="M8485 5066 c-61 -26 -88 -100 -59 -161 43 -91 174 -102 225 -19 68
111 -44 233 -166 180z m112 -58 c34 -32 31 -79 -8 -112 -37 -31 -45 -32 -86
-6 -29 17 -33 25 -33 64 0 35 5 48 22 60 32 23 78 20 105 -6z"/>
<path d="M8727 5074 c-4 -4 -7 -61 -7 -126 l0 -118 90 0 c89 0 90 0 90 25 0
24 -3 25 -60 25 l-59 0 -3 98 c-3 89 -5 97 -23 100 -12 2 -24 0 -28 -4z"/>
<path d="M8950 4956 l0 -126 85 0 c84 0 85 0 85 25 0 24 -3 25 -60 25 l-59 0
-3 98 c-3 92 -4 97 -25 100 -23 3 -23 2 -23 -122z"/>
<path d="M9214 5070 c-41 -16 -74 -68 -74 -116 0 -36 6 -51 33 -80 67 -73 185
-50 215 41 34 104 -70 197 -174 155z m110 -62 c59 -83 -45 -180 -111 -104 -28
34 -29 65 -2 100 27 35 90 37 113 4z"/>
<path d="M4298 4982 l-118 -3 0 -34 0 -35 150 0 150 0 0 34 c0 31 -3 34 -32
37 -18 2 -86 3 -150 1z"/>
<path d="M9480 4945 l0 -36 148 3 147 3 3 33 3 32 -150 0 -151 0 0 -35z"/>
<path d="M6540 4745 c-20 -24 -6 -28 15 -5 10 11 13 20 8 20 -6 0 -16 -7 -23
-15z"/>
<path d="M4180 4702 c0 -4 16 -31 35 -59 26 -38 35 -63 35 -93 0 -22 5 -40 10
-40 6 0 10 16 10 35 0 24 13 52 46 100 27 39 40 65 32 65 -8 0 -21 -12 -31
-27 -9 -16 -25 -39 -35 -51 l-18 -24 -35 51 c-31 47 -49 62 -49 43z"/>
<path d="M4488 4610 c-29 -62 -42 -100 -34 -100 7 0 18 11 24 25 10 22 18 25
65 25 48 0 55 -3 65 -25 6 -14 16 -25 21 -25 6 0 2 19 -8 43 -54 122 -71 157
-78 157 -5 0 -29 -45 -55 -100z m92 -21 c0 -5 -18 -9 -40 -9 -22 0 -40 2 -40
4 0 2 9 26 21 52 l20 48 20 -43 c10 -24 19 -47 19 -52z"/>
<path d="M4730 4703 c-56 -20 -83 -89 -56 -141 20 -38 44 -52 88 -52 36 0 78
23 66 36 -4 4 -15 1 -23 -6 -21 -18 -73 -15 -95 5 -27 24 -32 60 -16 99 11 28
22 36 49 41 20 4 44 2 55 -4 25 -13 32 -14 32 -3 0 21 -66 37 -100 25z"/>
<path d="M5324 4673 c-13 -31 -32 -74 -72 -155 -2 -5 2 -8 8 -8 6 0 16 11 22
25 10 22 17 25 69 25 54 0 59 -2 65 -25 3 -14 13 -25 21 -25 8 0 12 3 10 8 -9
14 -68 143 -77 168 -13 34 -29 30 -46 -13z m44 -30 c5 -16 13 -36 17 -45 6
-15 1 -18 -34 -18 -46 0 -48 5 -24 55 20 42 28 44 41 8z"/>
<path d="M5972 4618 c-23 -51 -42 -96 -42 -100 0 -17 18 -6 28 17 10 22 18 25
67 25 50 0 56 -2 65 -25 5 -14 14 -25 20 -25 11 0 4 21 -45 125 -19 41 -38 75
-43 75 -4 0 -26 -42 -50 -92z m56 -36 c-22 -2 -42 -1 -44 1 -3 2 5 26 17 53
l22 49 22 -50 22 -50 -39 -3z"/>
<path d="M6205 4701 c-28 -12 -51 -41 -59 -73 -8 -34 15 -93 42 -107 26 -14
77 -14 103 -1 33 18 21 28 -17 15 -20 -7 -45 -10 -55 -8 -57 15 -72 99 -24
140 28 25 54 27 98 8 27 -12 20 11 -8 23 -30 14 -51 14 -80 3z"/>
<path d="M6495 4701 c-39 -16 -60 -51 -60 -98 0 -37 5 -49 28 -69 41 -35 99
-33 138 5 75 76 -7 202 -106 162z m90 -36 c28 -27 33 -79 11 -107 -31 -41 -97
-41 -123 -1 -54 82 44 177 112 108z"/>
<path d="M7523 4694 c-88 -45 -55 -184 44 -184 37 0 73 15 73 30 0 5 -16 2
-35 -5 -41 -18 -74 -8 -98 29 -24 35 -21 59 9 95 27 33 60 39 96 20 22 -12 37
-4 21 12 -18 18 -77 20 -110 3z"/>
<path d="M7730 4697 c-35 -18 -65 -76 -56 -111 12 -48 49 -76 100 -76 37 0 48
5 70 31 71 84 -17 205 -114 156z m95 -32 c44 -43 22 -132 -33 -136 -62 -4 -92
22 -92 81 0 71 77 104 125 55z"/>
<path d="M9178 4694 c-47 -25 -62 -82 -37 -137 20 -44 103 -63 145 -33 28 21
11 30 -24 12 -80 -41 -151 66 -86 131 25 25 42 27 102 8 35 -11 26 12 -9 24
-41 14 -58 13 -91 -5z"/>
<path d="M9476 4658 c-55 -122 -64 -148 -55 -148 5 0 15 11 21 25 10 22 17 25
65 25 47 0 55 -3 65 -25 6 -14 17 -25 24 -25 8 0 -5 38 -34 100 -25 55 -50
100 -54 100 -5 0 -19 -24 -32 -52z m54 -28 c11 -21 20 -42 20 -45 0 -3 -20 -5
-45 -5 l-45 0 22 45 c12 25 23 45 25 45 1 0 12 -18 23 -40z"/>
<path d="M9662 4694 c-32 -22 -26 -64 11 -81 15 -7 39 -19 54 -25 36 -17 39
-34 10 -53 -23 -14 -29 -15 -61 -1 -40 17 -59 5 -20 -13 44 -20 92 -14 110 14
15 23 15 27 0 50 -9 14 -30 27 -51 31 -39 7 -60 27 -51 49 8 23 35 30 67 18
36 -14 47 0 13 16 -34 15 -55 14 -82 -5z"/>
<path d="M4893 4693 l37 -4 0 -90 c0 -53 4 -89 10 -89 6 0 10 36 10 89 l0 90
38 4 c20 2 -1 4 -48 4 -47 0 -68 -2 -47 -4z"/>
<path d="M5060 4625 c0 -91 17 -115 79 -115 59 0 81 33 81 121 0 39 -4 69 -10
69 -6 0 -10 -29 -10 -66 0 -86 -10 -104 -60 -104 -50 0 -60 18 -60 104 0 37
-4 66 -10 66 -6 0 -10 -32 -10 -75z"/>
<path d="M5490 4605 l0 -95 65 0 c37 0 65 4 65 10 0 6 -25 10 -55 10 l-55 0 0
85 c0 50 -4 85 -10 85 -6 0 -10 -38 -10 -95z"/>
<path d="M5670 4605 c0 -57 4 -95 10 -95 6 0 10 38 10 95 0 57 -4 95 -10 95
-6 0 -10 -38 -10 -95z"/>
<path d="M5798 4693 c34 -2 62 -6 62 -9 0 -2 -27 -39 -60 -81 -33 -41 -60 -80
-60 -84 0 -5 34 -9 75 -9 89 0 101 18 15 22 l-60 3 60 77 c33 42 60 79 60 82
0 3 -35 5 -77 4 -77 -2 -77 -2 -15 -5z"/>
<path d="M6360 4605 c0 -57 4 -95 10 -95 6 0 10 38 10 95 0 57 -4 95 -10 95
-6 0 -10 -38 -10 -95z"/>
<path d="M6680 4605 c0 -57 4 -95 10 -95 6 0 10 33 10 78 l1 77 42 -50 c23
-27 54 -63 69 -80 l26 -30 4 98 c2 53 0 97 -4 97 -4 0 -8 -35 -10 -77 l-3 -78
-60 77 c-33 43 -66 78 -72 78 -10 0 -13 -26 -13 -95z"/>
<path d="M6990 4605 l0 -95 45 0 c85 0 135 50 120 119 -10 47 -48 71 -111 71
l-54 0 0 -95z m127 50 c30 -34 29 -66 -2 -99 -18 -20 -34 -26 -65 -26 l-40 0
0 81 0 82 42 -6 c29 -4 50 -14 65 -32z"/>
<path d="M7210 4605 l0 -95 70 0 c40 0 70 4 70 10 0 6 -27 10 -60 10 l-60 0 0
35 0 35 56 0 c34 0 53 4 49 10 -3 6 -28 10 -56 10 l-49 0 0 35 0 34 63 4 62 3
-72 2 -73 2 0 -95z"/>
<path d="M7920 4605 c0 -114 18 -128 22 -17 l3 77 34 -49 c38 -55 29 -57 88
20 l22 29 0 -77 c1 -45 5 -78 11 -78 6 0 10 38 10 95 0 113 -11 121 -60 45
-18 -27 -33 -50 -35 -50 -2 0 -17 23 -35 50 -49 76 -60 68 -60 -45z"/>
<path d="M8160 4605 c0 -78 3 -95 15 -95 10 0 15 11 15 35 0 34 1 35 38 35 53
0 82 23 82 65 0 43 -20 55 -94 55 l-56 0 0 -95z m98 79 c26 -8 39 -48 22 -69
-7 -9 -29 -15 -51 -15 l-39 0 0 45 c0 40 2 45 23 45 12 0 32 -3 45 -6z"/>
<path d="M8350 4605 l0 -95 75 0 c43 0 75 4 75 10 0 6 -27 10 -60 10 l-60 0 0
35 0 35 50 0 c28 0 50 5 50 10 0 6 -22 10 -50 10 l-50 0 0 35 0 34 63 4 c61 3
61 3 -15 5 l-78 2 0 -95z"/>
<path d="M8558 4693 l32 -4 0 -90 c0 -72 3 -89 15 -89 12 0 15 17 15 89 l0 90
33 4 c17 2 -4 4 -48 4 -44 0 -65 -2 -47 -4z"/>
<path d="M8720 4605 l0 -95 75 0 c43 0 75 4 75 10 0 6 -27 10 -60 10 l-60 0 0
35 0 35 56 0 c34 0 53 4 49 10 -3 6 -28 10 -56 10 l-49 0 0 35 0 34 63 4 c61
3 61 3 -15 5 l-78 2 0 -95z"/>
<path d="M8910 4605 c0 -57 4 -95 10 -95 6 0 10 32 10 75 0 41 3 75 8 75 4 -1
23 -21 42 -47 62 -81 82 -103 91 -103 5 0 9 43 9 95 0 114 -18 129 -22 18 l-3
-76 -59 76 c-32 43 -64 77 -72 77 -11 0 -14 -20 -14 -95z"/>
<path d="M9340 4605 c0 -78 3 -95 15 -95 12 0 15 17 15 95 0 78 -3 95 -15 95
-12 0 -15 -17 -15 -95z"/>
</g>
</svg>
